<?xml version="1.0" encoding="utf-8"?>
<!-- Generator: Adobe Illustrator 27.5.0, SVG Export Plug-In . SVG Version: 6.00 Build 0)  -->
<svg version="1.1" xmlns="http://www.w3.org/2000/svg" xmlns:xlink="http://www.w3.org/1999/xlink" x="0px" y="0px"
	 viewBox="0 0 500 500" xml:space="preserve">
<g id="OBJECTS">
	<g>
		<g>
			<path style="fill:#6DD9B6;" d="M282.756,112.143l-2.641-2.147l21.162-17.206c1.657-1.347,1.908-3.783,0.561-5.44
				c-1.348-1.657-3.783-1.908-5.44-0.561l-24.853,20.207c-0.903,0.734-1.427,1.836-1.427,3.001s0.524,2.266,1.427,3.001l6.332,5.148
				c0.717,0.583,1.58,0.867,2.437,0.867c1.124,0,2.239-0.488,3.003-1.428C284.665,115.926,284.413,113.49,282.756,112.143z"/>
			<path style="fill:#6DD9B6;" d="M336.046,106.995l-7.152-5.815c-1.657-1.347-4.093-1.096-5.44,0.561
				c-1.347,1.657-1.096,4.093,0.561,5.44l3.461,2.814l-21.162,17.206c-1.657,1.347-1.908,3.783-0.561,5.44
				c0.764,0.94,1.879,1.428,3.003,1.428c0.857,0,1.72-0.284,2.437-0.867l24.853-20.207c0.903-0.734,1.428-1.837,1.428-3.001
				S336.949,107.729,336.046,106.995z"/>
			<path style="fill:#6DD9B6;" d="M314.144,86.171c-1.963-0.842-4.237,0.067-5.079,2.029l-16.596,38.688
				c-0.842,1.963,0.067,4.236,2.029,5.079c0.497,0.213,1.014,0.314,1.523,0.314c1.5,0,2.927-0.878,3.556-2.344l16.596-38.688
				C317.015,89.287,316.107,87.013,314.144,86.171z"/>
		</g>
	</g>
	
</g>
</svg>
